<svg width="17" height="23" viewBox="0 0 17 23" fill="none" xmlns="http://www.w3.org/2000/svg">
<path d="M0 22.1011V21.8232H0.800505C2.27491 21.8232 2.4587 21.668 2.4587 20.197V1.91224C2.4587 0.4372 2.27491 0.28193 0.800505 0.28193H0V0.00408374H4.70094L13.1185 15.494C13.4575 16.0783 13.6699 16.5074 13.6699 16.6299H13.8537C13.8251 16.2908 13.8251 15.8618 13.8251 15.3388V2.2146C13.8251 0.739562 13.335 0.277847 11.8606 0.277847H10.4801V0H16.8066V0.277847H16.3165C14.8421 0.277847 14.352 0.739562 14.352 2.2146V22.6813H14.1069C14.1069 22.2808 13.6454 21.5127 13.2492 20.7772L3.72481 3.47308C3.41849 2.88879 3.11218 2.39847 3.11218 2.27589H2.95698C2.98965 2.61503 2.98964 3.07674 2.98964 3.59566V20.1929C2.98964 21.6679 3.17343 21.8191 4.64784 21.8191H5.44836V22.097H0.0122522L0 22.1011Z" fill="#B17A53"/>
</svg>
